<?xml version="1.0" encoding="utf-8"?>
<!-- Generator: Adobe Illustrator 17.0.0, SVG Export Plug-In . SVG Version: 6.00 Build 0)  -->
<!DOCTYPE svg PUBLIC "-//W3C//DTD SVG 1.1//EN" "http://www.w3.org/Graphics/SVG/1.1/DTD/svg11.dtd" [
	<!ENTITY ns_flows "http://ns.adobe.com/Flows/1.0/">
	<!ENTITY ns_extend "http://ns.adobe.com/Extensibility/1.0/">
	<!ENTITY ns_ai "http://ns.adobe.com/AdobeIllustrator/10.0/">
	<!ENTITY ns_graphs "http://ns.adobe.com/Graphs/1.0/">
]>
<svg version="1.1" id="Layer_1" xmlns:x="&ns_extend;" xmlns:i="&ns_ai;" xmlns:graph="&ns_graphs;"
	 xmlns="http://www.w3.org/2000/svg" xmlns:xlink="http://www.w3.org/1999/xlink" xmlns:a="http://ns.adobe.com/AdobeSVGViewerExtensions/3.0/"
	 x="0px" y="0px" width="547px" height="446px" viewBox="0 0 547 446" enable-background="new 0 0 547 446" xml:space="preserve">
<g>
	<g>
		<path fill-rule="evenodd" clip-rule="evenodd" fill="#F27025" d="M191.748,82.939h32.466l51.581,97.011
			c18.463-31.051,37.188-60.852,55.665-91.892c17.623-29.701,35.073-54.358,56.157-76.861
			c-10.666,32.336-28.637,64.093-46.904,95.751c-22.185,41.057-49.003,79.805-78.298,117.311l-44.428-84.384
			c-23.618,37.643-19.535,82.624,19.361,111.949c30.091,21.019,63.644,18.122,92.823,1.173
			c33.147-22.555,40.373-67.145,23.285-102.583c-6.53,8.398-13.278,17.844-22.3,25.294c8.21-23.028,19.506-41.216,31.654-60.317
			c11.933-18.76,23.438-37.162,37.644-57.818l-34.95,74.79c18.898,32.119,18.985,47.968,15.951,74.056
			c-3.033,26.088-19.078,45.934-37.209,60.074c-21.142,16.501-64.303,26.746-97.297,13.475
			c-33.538-13.489-61.979-47.686-63.369-89.808c-0.304-31.459,8.848-44.981,25.356-67.111L191.748,82.939z"/>
		<path fill-rule="evenodd" clip-rule="evenodd" fill="#F27025" d="M300.832,196.089c11.165-29.324,25.241-55.27,42.067-82.335
			c16.842-27.058,31.612-51.653,52.682-75.877c-10.05,28.647-23.669,53.598-40.3,80.518
			C338.656,145.315,320.802,172.837,300.832,196.089z"/>
		<polygon fill-rule="evenodd" clip-rule="evenodd" fill="#F27025" points="59.131,382.847 70.688,382.571 116.085,319.659 
			102.343,319.681 69.456,365.846 36.049,319.81 13.705,319.81 		"/>
		<polygon fill-rule="evenodd" clip-rule="evenodd" fill="#F27025" points="140.369,319.159 140.717,382.673 153.866,382.673 
			154.054,339.592 209.893,382.847 237.276,382.673 237.276,319.333 222.491,319.522 222.317,362.783 164.089,319.377 		"/>
		<path fill-rule="evenodd" clip-rule="evenodd" fill="#F27025" d="M383.924,361.661l26.949,21.186h21.2l-36.043-30.44
			l36.637-32.792l-21.975,0.051l-26.884,23.083l-29.621-23.083l-89.369,0.362c-19.795,13.032-33.082,44.08-0.391,63.007
			l90.767-0.211C356.715,382.557,381.463,363.485,383.924,361.661L383.924,361.661z M344.941,372.507
			c-3.345,2.021-7.719,0.717-8.203-2.853l-61.276-0.377c-10.918,0-15.712-12.019-7.298-13.373l55.925,0.369l-0.174-9.658
			l-55.751-0.384c-8.645,0.427-2.542-12.881,7.544-13.127l61.573-0.058c0.84-4.055,5.995-3.751,8.313-1.586l25.269,19.99
			L344.941,372.507z"/>
		<g>
			<path fill="#6C6E71" d="M137.104,421.438l4.265-0.412c0.203,1.817,0.695,3.309,1.419,4.467c0.738,1.174,1.882,2.107,3.439,2.824
				c1.557,0.725,3.323,1.072,5.264,1.072c1.723,0,3.258-0.269,4.562-0.812c1.347-0.536,2.332-1.281,2.976-2.237
				c0.63-0.948,0.963-1.984,0.963-3.106c0-1.137-0.318-2.128-0.927-2.976c-0.637-0.848-1.651-1.571-3.085-2.143
				c-0.912-0.37-2.939-0.971-6.11-1.768c-3.128-0.796-5.344-1.557-6.618-2.266c-1.622-0.905-2.853-2.027-3.649-3.367
				c-0.811-1.354-1.187-2.859-1.187-4.518c0-1.832,0.478-3.541,1.462-5.134c0.985-1.593,2.418-2.795,4.286-3.628
				c1.883-0.818,3.982-1.238,6.307-1.238c2.556,0,4.757,0.442,6.712,1.304c1.926,0.869,3.432,2.143,4.46,3.823
				c1.058,1.687,1.593,3.584,1.68,5.72l-4.33,0.341c-0.247-2.296-1.028-4.019-2.375-5.199c-1.347-1.166-3.353-1.745-5.966-1.745
				c-2.737,0-4.735,0.522-5.995,1.579c-1.26,1.071-1.868,2.353-1.868,3.844c0,1.318,0.434,2.383,1.317,3.237
				c0.876,0.825,3.157,1.687,6.835,2.563c3.692,0.891,6.198,1.666,7.573,2.317c1.999,0.984,3.476,2.216,4.417,3.699
				c0.941,1.492,1.419,3.215,1.419,5.163c0,1.926-0.507,3.743-1.563,5.444c-1.043,1.717-2.534,3.034-4.489,3.982
				c-1.97,0.949-4.156,1.434-6.604,1.434c-3.099,0-5.691-0.492-7.791-1.434c-2.085-0.963-3.736-2.403-4.938-4.322
				C137.777,426.028,137.169,423.856,137.104,421.438z"/>
			<path fill="#6C6E71" d="M169.172,415.414c0-6.017,1.528-10.723,4.576-14.126c3.056-3.395,6.979-5.104,11.831-5.104
				c3.157,0,6.009,0.796,8.543,2.403c2.534,1.593,4.475,3.823,5.814,6.676c1.325,2.867,1.991,6.111,1.991,9.731
				c0,3.678-0.702,6.973-2.114,9.869c-1.404,2.903-3.381,5.103-5.951,6.596c-2.563,1.491-5.344,2.244-8.327,2.244
				c-3.215,0-6.082-0.825-8.616-2.483c-2.534-1.643-4.46-3.896-5.785-6.755C169.809,421.611,169.172,418.593,169.172,415.414z
				 M173.85,415.494c0,4.365,1.115,7.805,3.316,10.332c2.23,2.505,5.01,3.765,8.37,3.765c3.389,0,6.198-1.26,8.414-3.809
				c2.193-2.541,3.301-6.14,3.301-10.803c0-2.954-0.478-5.532-1.419-7.732c-0.948-2.209-2.302-3.91-4.112-5.126
				c-1.839-1.217-3.881-1.811-6.14-1.811c-3.215,0-5.952,1.166-8.269,3.504C174.993,406.147,173.85,410.034,173.85,415.494z"/>
			<path fill="#6C6E71" d="M207.995,433.081V396.82h23.112v4.279h-18.579v11.23h16.059v4.278h-16.059v16.473H207.995z"/>
			<path fill="#6C6E71" d="M245.689,433.081V401.1h-11.267v-4.279h27.138v4.279h-11.324v31.981H245.689z"/>
			<path fill="#6C6E71" d="M275.629,433.081l-9.109-36.261h4.648l5.228,23.77c0.55,2.483,1.027,4.96,1.434,7.414
				c0.897-3.873,1.39-6.104,1.549-6.697l6.517-24.487h5.488l4.873,18.348c1.237,4.555,2.136,8.833,2.679,12.837
				c0.442-2.28,1.022-4.916,1.716-7.885l5.358-23.3h4.547l-9.384,36.261h-4.388l-7.197-27.63c-0.607-2.303-0.97-3.722-1.071-4.25
				c-0.348,1.658-0.695,3.077-1.014,4.25l-7.263,27.63H275.629z"/>
			<path fill="#6C6E71" d="M309.268,433.081l13.135-36.261h4.895l14.018,36.261h-5.17l-3.982-10.984H317.84l-3.765,10.984H309.268z
				 M319.144,418.194h11.6l-3.577-10.05c-1.071-3.048-1.883-5.554-2.418-7.516c-0.435,2.324-1.043,4.634-1.853,6.93L319.144,418.194
				z"/>
			<path fill="#6C6E71" d="M345.007,433.081V396.82h15.176c3.056,0,5.372,0.333,6.966,0.978c1.578,0.651,2.853,1.803,3.809,3.454
				c0.948,1.643,1.418,3.468,1.418,5.459c0,2.57-0.781,4.742-2.359,6.517c-1.579,1.752-3.982,2.882-7.284,3.359
				c1.202,0.601,2.1,1.202,2.737,1.796c1.317,1.296,2.577,2.903,3.75,4.829l5.966,9.869h-5.705l-4.532-7.545
				c-1.318-2.18-2.404-3.852-3.244-4.996c-0.869-1.151-1.65-1.962-2.316-2.425c-0.695-0.464-1.376-0.775-2.086-0.964
				c-0.492-0.108-1.347-0.173-2.505-0.173h-5.257v16.103H345.007z M349.539,412.822h9.731c2.085,0,3.692-0.225,4.851-0.681
				c1.188-0.449,2.071-1.188,2.68-2.173c0.607-0.999,0.912-2.085,0.912-3.258c0-1.709-0.602-3.128-1.767-4.221
				c-1.173-1.115-3.034-1.658-5.561-1.658h-10.846V412.822z"/>
			<path fill="#6C6E71" d="M379.572,433.081V396.82h24.763v4.279h-20.229v11.107h18.94v4.25h-18.94v12.345h21.025v4.279H379.572z"/>
		</g>
		<path fill-rule="evenodd" clip-rule="evenodd" fill="#F27025" d="M498.049,332.496V382.6h-25.689v-50.104h-35.102
			c-3.027-4.235-2.621-8.457,0-12.686h93.764c2.954,3.983,4.106,8.19-0.203,12.686H498.049z"/>
		<path fill-rule="evenodd" clip-rule="evenodd" fill="#F27025" d="M108.236,346.405c7.892-2.107,16.682-1.854,24.328,0
			c1.506,3.902,1.188,7.291-0.362,9.854c-10.325,1.447-16.696,1.273-23.966-0.116C106.557,353.27,106.137,349.772,108.236,346.405z"
			/>
	</g>
</g>
</svg>
